<mxfile host="app.diagrams.net" agent="Mozilla/5.0 (Windows NT 10.0; Win64; x64) AppleWebKit/537.36 (KHTML, like Gecko) Chrome/138.0.0.0 Safari/537.36" version="28.0.5">
  <diagram name="第 1 页" id="TieCnEsrPtmezmL9pHrA">
    <mxGraphModel dx="1426" dy="863" grid="1" gridSize="10" guides="1" tooltips="1" connect="1" arrows="1" fold="1" page="1" pageScale="1" pageWidth="827" pageHeight="1169" math="0" shadow="0">
      <root>
        <mxCell id="0" />
        <mxCell id="1" parent="0" />
        <mxCell id="r3I_f0I10Q7XxRKtN0YL-39" style="edgeStyle=orthogonalEdgeStyle;rounded=0;orthogonalLoop=1;jettySize=auto;html=1;exitX=0.75;exitY=1;exitDx=0;exitDy=0;entryX=0.5;entryY=0;entryDx=0;entryDy=0;dashed=1;dashPattern=1 4;" parent="1" source="r3I_f0I10Q7XxRKtN0YL-2" edge="1">
          <mxGeometry relative="1" as="geometry">
            <mxPoint x="190" y="280" as="targetPoint" />
          </mxGeometry>
        </mxCell>
        <mxCell id="r3I_f0I10Q7XxRKtN0YL-40" style="edgeStyle=orthogonalEdgeStyle;rounded=0;orthogonalLoop=1;jettySize=auto;html=1;exitX=0.75;exitY=1;exitDx=0;exitDy=0;entryX=0.5;entryY=0;entryDx=0;entryDy=0;dashed=1;dashPattern=1 4;" parent="1" source="r3I_f0I10Q7XxRKtN0YL-2" target="r3I_f0I10Q7XxRKtN0YL-27" edge="1">
          <mxGeometry relative="1" as="geometry" />
        </mxCell>
        <mxCell id="r3I_f0I10Q7XxRKtN0YL-2" value="" style="rounded=0;whiteSpace=wrap;html=1;dashed=1;" parent="1" vertex="1">
          <mxGeometry x="40" y="40" width="510" height="160" as="geometry" />
        </mxCell>
        <mxCell id="r3I_f0I10Q7XxRKtN0YL-5" value="" style="edgeStyle=orthogonalEdgeStyle;rounded=0;orthogonalLoop=1;jettySize=auto;html=1;" parent="1" source="r3I_f0I10Q7XxRKtN0YL-3" target="r3I_f0I10Q7XxRKtN0YL-4" edge="1">
          <mxGeometry relative="1" as="geometry" />
        </mxCell>
        <mxCell id="r3I_f0I10Q7XxRKtN0YL-3" value="Client / Swagger" style="rounded=1;whiteSpace=wrap;html=1;fontFamily=Verdana;" parent="1" vertex="1">
          <mxGeometry x="60" y="80" width="120" height="60" as="geometry" />
        </mxCell>
        <mxCell id="r3I_f0I10Q7XxRKtN0YL-18" value="" style="edgeStyle=orthogonalEdgeStyle;rounded=0;orthogonalLoop=1;jettySize=auto;html=1;" parent="1" source="r3I_f0I10Q7XxRKtN0YL-4" edge="1">
          <mxGeometry relative="1" as="geometry">
            <mxPoint x="400" y="110" as="targetPoint" />
          </mxGeometry>
        </mxCell>
        <mxCell id="r3I_f0I10Q7XxRKtN0YL-4" value="Controller" style="rounded=1;whiteSpace=wrap;html=1;fontFamily=Verdana;" parent="1" vertex="1">
          <mxGeometry x="230" y="80" width="120" height="60" as="geometry" />
        </mxCell>
        <mxCell id="r3I_f0I10Q7XxRKtN0YL-10" value="Service" style="swimlane;fontStyle=0;childLayout=stackLayout;horizontal=1;startSize=30;horizontalStack=0;resizeParent=1;resizeParentMax=0;resizeLast=0;collapsible=1;marginBottom=0;whiteSpace=wrap;html=1;fontFamily=Verdana;" parent="1" vertex="1">
          <mxGeometry x="400" y="50" width="120" height="120" as="geometry">
            <mxRectangle x="60" y="260" width="80" height="30" as="alternateBounds" />
          </mxGeometry>
        </mxCell>
        <mxCell id="r3I_f0I10Q7XxRKtN0YL-11" value="寫入 DB" style="text;strokeColor=none;fillColor=none;align=left;verticalAlign=middle;spacingLeft=4;spacingRight=4;overflow=hidden;points=[[0,0.5],[1,0.5]];portConstraint=eastwest;rotatable=0;whiteSpace=wrap;html=1;fontFamily=Verdana;" parent="r3I_f0I10Q7XxRKtN0YL-10" vertex="1">
          <mxGeometry y="30" width="120" height="30" as="geometry" />
        </mxCell>
        <mxCell id="r3I_f0I10Q7XxRKtN0YL-12" value="寫入 Outbox" style="text;strokeColor=none;fillColor=none;align=left;verticalAlign=middle;spacingLeft=4;spacingRight=4;overflow=hidden;points=[[0,0.5],[1,0.5]];portConstraint=eastwest;rotatable=0;whiteSpace=wrap;html=1;fontFamily=Verdana;" parent="r3I_f0I10Q7XxRKtN0YL-10" vertex="1">
          <mxGeometry y="60" width="120" height="30" as="geometry" />
        </mxCell>
        <mxCell id="r3I_f0I10Q7XxRKtN0YL-13" value="Publisher 發布事件" style="text;strokeColor=none;fillColor=none;align=left;verticalAlign=middle;spacingLeft=4;spacingRight=4;overflow=hidden;points=[[0,0.5],[1,0.5]];portConstraint=eastwest;rotatable=0;whiteSpace=wrap;html=1;fontFamily=Verdana;" parent="r3I_f0I10Q7XxRKtN0YL-10" vertex="1">
          <mxGeometry y="90" width="120" height="30" as="geometry" />
        </mxCell>
        <mxCell id="r3I_f0I10Q7XxRKtN0YL-20" value="Listener 監聽" style="rounded=1;whiteSpace=wrap;html=1;fontFamily=Verdana;" parent="1" vertex="1">
          <mxGeometry x="130" y="600" width="120" height="60" as="geometry" />
        </mxCell>
        <mxCell id="r3I_f0I10Q7XxRKtN0YL-21" value="Dispatcher&amp;nbsp;&lt;div&gt;( 策略 + 工廠模式 )&lt;/div&gt;" style="rounded=1;whiteSpace=wrap;html=1;fontFamily=Verdana;" parent="1" vertex="1">
          <mxGeometry x="130" y="740" width="120" height="60" as="geometry" />
        </mxCell>
        <mxCell id="r3I_f0I10Q7XxRKtN0YL-23" value="Slack 通知" style="text;strokeColor=none;fillColor=none;align=left;verticalAlign=middle;spacingLeft=4;spacingRight=4;overflow=hidden;points=[[0,0.5],[1,0.5]];portConstraint=eastwest;rotatable=0;whiteSpace=wrap;html=1;fontFamily=Verdana;" parent="1" vertex="1">
          <mxGeometry x="120" y="850" width="50" height="30" as="geometry" />
        </mxCell>
        <mxCell id="r3I_f0I10Q7XxRKtN0YL-24" value="Email&lt;div&gt;通知&lt;/div&gt;" style="text;strokeColor=none;fillColor=none;align=left;verticalAlign=middle;spacingLeft=4;spacingRight=4;overflow=hidden;points=[[0,0.5],[1,0.5]];portConstraint=eastwest;rotatable=0;whiteSpace=wrap;html=1;fontFamily=Verdana;" parent="1" vertex="1">
          <mxGeometry x="210" y="850" width="50" height="30" as="geometry" />
        </mxCell>
        <mxCell id="r3I_f0I10Q7XxRKtN0YL-27" value="" style="rounded=0;whiteSpace=wrap;html=1;dashed=1;movable=1;resizable=1;rotatable=1;deletable=1;editable=1;locked=0;connectable=1;" parent="1" vertex="1">
          <mxGeometry x="380" y="280" width="160" height="360" as="geometry" />
        </mxCell>
        <mxCell id="r3I_f0I10Q7XxRKtN0YL-35" value="" style="edgeStyle=orthogonalEdgeStyle;rounded=0;orthogonalLoop=1;jettySize=auto;html=1;" parent="1" source="r3I_f0I10Q7XxRKtN0YL-28" target="r3I_f0I10Q7XxRKtN0YL-29" edge="1">
          <mxGeometry relative="1" as="geometry" />
        </mxCell>
        <mxCell id="r3I_f0I10Q7XxRKtN0YL-28" value="Scheduler&lt;div&gt;( Redis Lock )&lt;/div&gt;" style="rounded=1;whiteSpace=wrap;html=1;fontFamily=Verdana;" parent="1" vertex="1">
          <mxGeometry x="400" y="300" width="120" height="60" as="geometry" />
        </mxCell>
        <mxCell id="r3I_f0I10Q7XxRKtN0YL-37" value="" style="edgeStyle=orthogonalEdgeStyle;rounded=0;orthogonalLoop=1;jettySize=auto;html=1;" parent="1" source="r3I_f0I10Q7XxRKtN0YL-29" target="r3I_f0I10Q7XxRKtN0YL-30" edge="1">
          <mxGeometry relative="1" as="geometry" />
        </mxCell>
        <mxCell id="r3I_f0I10Q7XxRKtN0YL-29" value="查 Outbox" style="rounded=1;whiteSpace=wrap;html=1;fontFamily=Verdana;" parent="1" vertex="1">
          <mxGeometry x="400" y="390" width="120" height="60" as="geometry" />
        </mxCell>
        <mxCell id="r3I_f0I10Q7XxRKtN0YL-38" value="" style="edgeStyle=orthogonalEdgeStyle;rounded=0;orthogonalLoop=1;jettySize=auto;html=1;" parent="1" source="r3I_f0I10Q7XxRKtN0YL-30" target="r3I_f0I10Q7XxRKtN0YL-31" edge="1">
          <mxGeometry relative="1" as="geometry" />
        </mxCell>
        <mxCell id="r3I_f0I10Q7XxRKtN0YL-30" value="RabbitMQ" style="rounded=1;whiteSpace=wrap;html=1;fontFamily=Verdana;" parent="1" vertex="1">
          <mxGeometry x="400" y="470" width="120" height="60" as="geometry" />
        </mxCell>
        <mxCell id="r3I_f0I10Q7XxRKtN0YL-31" value="Consumer" style="rounded=1;whiteSpace=wrap;html=1;fontFamily=Verdana;" parent="1" vertex="1">
          <mxGeometry x="400" y="555" width="120" height="60" as="geometry" />
        </mxCell>
        <mxCell id="r3I_f0I10Q7XxRKtN0YL-42" value="異步處理" style="text;strokeColor=none;fillColor=none;align=left;verticalAlign=middle;spacingLeft=4;spacingRight=4;overflow=hidden;points=[[0,0.5],[1,0.5]];portConstraint=eastwest;rotatable=0;whiteSpace=wrap;html=1;fontFamily=Verdana;" parent="1" vertex="1">
          <mxGeometry x="470" y="230" width="80" height="30" as="geometry" />
        </mxCell>
        <mxCell id="r3I_f0I10Q7XxRKtN0YL-41" value="異步處理" style="text;strokeColor=none;fillColor=none;align=left;verticalAlign=middle;spacingLeft=4;spacingRight=4;overflow=hidden;points=[[0,0.5],[1,0.5]];portConstraint=eastwest;rotatable=0;whiteSpace=wrap;html=1;fontFamily=Verdana;" parent="1" vertex="1">
          <mxGeometry x="100" y="230" width="80" height="30" as="geometry" />
        </mxCell>
        <mxCell id="Dx_ExBJ0YeYtrE6EmDOO-2" value="Publisher&lt;div&gt;(依設定切換&lt;/div&gt;&lt;div&gt;是否使用Kafka)&lt;/div&gt;" style="rounded=1;whiteSpace=wrap;html=1;fontFamily=Verdana;" vertex="1" parent="1">
          <mxGeometry x="130" y="280" width="120" height="60" as="geometry" />
        </mxCell>
        <mxCell id="Dx_ExBJ0YeYtrE6EmDOO-6" value="Kafka" style="rounded=1;whiteSpace=wrap;html=1;fontFamily=Verdana;" vertex="1" parent="1">
          <mxGeometry x="40" y="470" width="120" height="60" as="geometry" />
        </mxCell>
        <mxCell id="Dx_ExBJ0YeYtrE6EmDOO-9" value="" style="endArrow=classic;html=1;rounded=0;exitX=0.5;exitY=1;exitDx=0;exitDy=0;" edge="1" parent="1">
          <mxGeometry width="50" height="50" relative="1" as="geometry">
            <mxPoint x="187.66" y="340" as="sourcePoint" />
            <mxPoint x="102.3475" y="470" as="targetPoint" />
          </mxGeometry>
        </mxCell>
        <mxCell id="Dx_ExBJ0YeYtrE6EmDOO-10" value="" style="endArrow=classic;html=1;rounded=0;entryX=0.5;entryY=0;entryDx=0;entryDy=0;" edge="1" parent="1">
          <mxGeometry width="50" height="50" relative="1" as="geometry">
            <mxPoint x="189.5" y="340" as="sourcePoint" />
            <mxPoint x="190" y="600" as="targetPoint" />
          </mxGeometry>
        </mxCell>
        <mxCell id="Dx_ExBJ0YeYtrE6EmDOO-11" value="" style="endArrow=classic;html=1;rounded=0;" edge="1" parent="1">
          <mxGeometry width="50" height="50" relative="1" as="geometry">
            <mxPoint x="90" y="530" as="sourcePoint" />
            <mxPoint x="190" y="600" as="targetPoint" />
          </mxGeometry>
        </mxCell>
        <mxCell id="Dx_ExBJ0YeYtrE6EmDOO-12" value="" style="endArrow=none;html=1;rounded=0;" edge="1" parent="1">
          <mxGeometry width="50" height="50" relative="1" as="geometry">
            <mxPoint x="140" y="850" as="sourcePoint" />
            <mxPoint x="190" y="800" as="targetPoint" />
          </mxGeometry>
        </mxCell>
        <mxCell id="Dx_ExBJ0YeYtrE6EmDOO-14" value="" style="endArrow=none;html=1;rounded=0;" edge="1" parent="1">
          <mxGeometry width="50" height="50" relative="1" as="geometry">
            <mxPoint x="230" y="850" as="sourcePoint" />
            <mxPoint x="190" y="800" as="targetPoint" />
          </mxGeometry>
        </mxCell>
        <mxCell id="Dx_ExBJ0YeYtrE6EmDOO-15" value="Y" style="text;html=1;align=center;verticalAlign=middle;whiteSpace=wrap;rounded=0;" vertex="1" parent="1">
          <mxGeometry x="90" y="380" width="60" height="30" as="geometry" />
        </mxCell>
        <mxCell id="Dx_ExBJ0YeYtrE6EmDOO-16" value="N" style="text;html=1;align=center;verticalAlign=middle;resizable=0;points=[];autosize=1;strokeColor=none;fillColor=none;" vertex="1" parent="1">
          <mxGeometry x="200" y="400" width="30" height="30" as="geometry" />
        </mxCell>
        <mxCell id="Dx_ExBJ0YeYtrE6EmDOO-18" value="" style="endArrow=classic;html=1;rounded=0;entryX=0.5;entryY=0;entryDx=0;entryDy=0;exitX=0.5;exitY=1;exitDx=0;exitDy=0;" edge="1" parent="1" source="r3I_f0I10Q7XxRKtN0YL-20" target="r3I_f0I10Q7XxRKtN0YL-21">
          <mxGeometry width="50" height="50" relative="1" as="geometry">
            <mxPoint x="160" y="690" as="sourcePoint" />
            <mxPoint x="190" y="730" as="targetPoint" />
          </mxGeometry>
        </mxCell>
      </root>
    </mxGraphModel>
  </diagram>
</mxfile>
